<?xml version="1.0" encoding="iso-8859-1"?>
<!-- Generator: Adobe Illustrator 18.0.0, SVG Export Plug-In . SVG Version: 6.00 Build 0)  -->
<!DOCTYPE svg PUBLIC "-//W3C//DTD SVG 1.1//EN" "http://www.w3.org/Graphics/SVG/1.1/DTD/svg11.dtd">
<svg version="1.1" id="Capa_1" xmlns="http://www.w3.org/2000/svg" xmlns:xlink="http://www.w3.org/1999/xlink" x="0px" y="0px"
	 viewBox="0 0 446.928 446.928" style="enable-background:new 0 0 446.928 446.928;fill:#8c8c8c" xml:space="preserve">
<g>
	<path d="M440.281,386.443c-0.094-3.793-0.217-7.614-0.363-11.355c-3.813-97.534-25.176-192.506-63.493-282.279l-8.362-19.592
		c-0.511-1.197-1.469-2.147-2.669-2.65l-96.288-40.283l-1.503-3.007c-6.364-12.729-17.912-22.089-31.682-25.681
		c-8.15-2.127-16.767-2.126-24.913,0c-13.771,3.592-25.318,12.952-31.684,25.681l-1.503,3.007L81.534,70.566
		c-1.2,0.502-2.158,1.453-2.669,2.65l-8.362,19.592c-38.318,89.775-59.681,184.748-63.494,282.28
		c-0.146,3.765-0.269,7.585-0.362,11.355c-0.188,7.522,4.955,14.109,12.15,15.859c-0.915,10.53-3.235,20.918-6.917,30.943
		c-0.913,2.486,0.271,5.253,2.699,6.309c11.272,4.903,23.084,7.374,35.211,7.374c2.541,0,5.098-0.108,7.665-0.326
		c2.64-0.223,4.646-2.466,4.576-5.114c-0.287-10.875,0.886-21.633,3.48-32.045c0.225,0.01,0.449,0.026,0.674,0.026
		c3.595,0,7.135-1.205,9.989-3.447c3.502-2.752,5.729-6.878,6.112-11.319c2.143-24.869,11.508-94.209,31.425-164.612
		c-1.053,11.896-1.981,24.929-2.494,38.018c-2.263,57.712,4.211,89.974,19.757,98.274l-3.464,25.114
		c-0.242,1.756,0.464,3.509,1.854,4.607c0.832,0.657,21.201,16.076,94.099,16.076s93.267-15.419,94.099-16.076
		c1.391-1.098,2.097-2.852,1.854-4.607l-3.464-25.114c15.546-8.3,22.02-40.562,19.757-98.274
		c-0.513-13.088-1.441-26.122-2.494-38.017c19.918,70.409,29.281,139.745,31.424,164.612c0.383,4.441,2.611,8.566,6.114,11.318
		c3.032,2.383,6.838,3.589,10.663,3.428c2.593,10.41,3.766,21.167,3.479,32.039c-0.07,2.647,1.937,4.891,4.576,5.114
		c2.568,0.218,5.123,0.326,7.665,0.326c12.126,0,23.939-2.47,35.211-7.374c2.429-1.056,3.612-3.823,2.699-6.309
		c-3.682-10.026-6.001-20.415-6.916-30.944C435.326,400.552,440.468,393.965,440.281,386.443z M252.958,62.383
		c-2.625,3.283-5.728,6.02-9.178,8.161c4.208-10.219,10.326-24.929,13.949-32.979c0.694-1.542,1.204-3.058,1.567-4.542l1.303,2.605
		C261.745,45.286,259.054,54.76,252.958,62.383z M213.532,11.271c6.496-1.695,13.366-1.695,19.864,0
		c3.062,0.799,5.983,1.959,8.716,3.434c4.352,2.349,7.488,6.589,7.85,11.521c0.159,2.164-0.169,4.603-1.353,7.235
		c-5.028,11.174-14.467,34.189-17.626,41.925c-1.054,0.181-2.12,0.326-3.201,0.417l-4.318,0.36l-4.318-0.36
		c-1.081-0.09-2.148-0.235-3.203-0.417c-3.159-7.736-12.596-30.751-17.625-41.925c-1.333-2.961-1.578-5.681-1.265-8.041
		c0.613-4.616,3.652-8.494,7.748-10.708C207.539,13.234,210.465,12.071,213.532,11.271z M186.329,35.629l1.305-2.611
		c0.362,1.485,0.87,3.003,1.565,4.547c3.623,8.05,9.74,22.76,13.948,32.979c-3.45-2.141-6.553-4.878-9.178-8.161
		C187.873,54.76,185.182,45.286,186.329,35.629z M22.856,432.106c2.998-9.197,4.939-18.653,5.825-28.219l26.893,4.137
		c-2.267,9.422-3.476,19.091-3.578,28.872C41.996,437.168,32.236,435.565,22.856,432.106z M72.324,393.844
		c-0.148,1.718-0.976,3.251-2.329,4.314c-1.35,1.061-3.023,1.504-4.725,1.24l-43.613-6.71c-2.933-0.451-5.088-3.029-5.015-5.997
		c0.093-3.723,0.214-7.497,0.358-11.214C20.767,279.167,41.862,185.384,79.7,96.734l3.558-8.336l35.866,91.853
		C88.527,265.231,74.973,363.105,72.324,393.844z M121.5,312.469l25.4-73.257l3.782,1.313l-25.555,73.695l-3.59-1.243
		C121.524,312.806,121.511,312.641,121.5,312.469z M122.587,323.922l3.991,1.382c0.542,0.188,1.094,0.277,1.636,0.277
		c2.071,0,4.008-1.297,4.724-3.363l28.83-83.14c0.905-2.609-0.477-5.457-3.085-6.362l-13.23-4.59
		c-1.253-0.435-2.628-0.354-3.82,0.225c-1.193,0.579-2.108,1.608-2.542,2.861l-18.279,52.718c0.056-4.809,0.183-9.915,0.396-15.36
		c1.715-43.846,8.138-87.219,8.202-87.652c0.129-0.863,0.029-1.745-0.288-2.558L89.897,77.908l86.198-36.062
		c0.389,9.712,3.843,19.001,10.063,26.781c7.988,9.991,19.409,16.078,32.157,17.141l0.148,0.012v279.523
		c-13.145,0.222-50.767,0.134-80.848-6.99C133.576,357.357,126.039,351.683,122.587,323.922z M140.676,369.232
		c30.23,6.254,64.825,6.322,77.787,6.084v26.837c-51.951-0.527-73.972-9.203-80.594-12.574L140.676,369.232z M228.464,402.153
		v-26.837c2.019,0.037,4.561,0.067,7.531,0.067c16.103,0,44.737-0.873,70.256-6.152l2.805,20.341
		C302.366,392.978,280.33,401.627,228.464,402.153z M309.311,358.314c-30.057,7.118-67.698,7.209-80.848,6.989V85.78l0.148-0.012
		c12.748-1.063,24.168-7.15,32.156-17.14c6.221-7.78,9.676-17.069,10.064-26.782l86.198,36.062L317.807,178.36
		c-0.317,0.813-0.417,1.695-0.288,2.558c0.064,0.433,6.479,43.737,8.199,87.582c0.215,5.472,0.343,10.601,0.399,15.431
		l-18.28-52.719c-0.434-1.253-1.349-2.282-2.542-2.861c-1.193-0.579-2.566-0.66-3.82-0.225l-13.229,4.59
		c-2.608,0.905-3.99,3.753-3.085,6.362l28.83,83.14c0.716,2.067,2.652,3.363,4.724,3.363c0.542,0,1.095-0.089,1.636-0.277
		l3.991-1.382C320.89,351.682,313.353,357.357,309.311,358.314z M325.391,312.976l-3.59,1.243l-25.555-73.695l3.781-1.312
		l25.401,73.258C325.416,312.642,325.403,312.806,325.391,312.976z M394.931,436.896c-0.102-9.781-1.311-19.45-3.578-28.872
		l26.894-4.137c0.886,9.566,2.827,19.021,5.825,28.219C414.69,435.565,404.929,437.174,394.931,436.896z M425.27,392.688
		l-43.612,6.71c-1.701,0.261-3.376-0.179-4.726-1.24c-1.354-1.064-2.182-2.597-2.33-4.315
		c-2.647-30.735-16.199-128.601-46.799-213.592l35.866-91.853l3.558,8.336c37.838,88.649,58.933,182.432,62.698,278.745
		c0.145,3.695,0.266,7.468,0.359,11.212C430.358,389.659,428.202,392.237,425.27,392.688z"/>
	<path d="M240.127,87.843c-1.311,0-2.601,0.54-3.53,1.47c-0.93,0.93-1.47,2.22-1.47,3.53c0,1.32,0.54,2.61,1.47,3.54
		s2.22,1.46,3.53,1.46c1.319,0,2.609-0.53,3.54-1.46c0.93-0.93,1.46-2.22,1.46-3.54s-0.53-2.6-1.46-3.53
		C242.736,88.383,241.446,87.843,240.127,87.843z"/>
	<path d="M240.127,152.013c-1.311,0-2.601,0.53-3.53,1.47c-0.93,0.93-1.47,2.21-1.47,3.53c0,1.32,0.54,2.6,1.47,3.53
		c0.93,0.94,2.22,1.47,3.53,1.47c1.319,0,2.609-0.53,3.54-1.47c0.93-0.92,1.46-2.21,1.46-3.53c0-1.32-0.53-2.61-1.46-3.53
		C242.736,152.543,241.446,152.013,240.127,152.013z"/>
	<path d="M240.127,216.182c-1.311,0-2.601,0.53-3.53,1.46c-0.93,0.93-1.47,2.22-1.47,3.54c0,1.31,0.54,2.6,1.47,3.53
		c0.93,0.93,2.22,1.47,3.53,1.47c1.319,0,2.609-0.54,3.54-1.47c0.93-0.93,1.46-2.21,1.46-3.53c0-1.32-0.53-2.61-1.46-3.54
		C242.736,216.713,241.446,216.182,240.127,216.182z"/>
	<path d="M240.127,280.343c-1.311,0-2.601,0.54-3.53,1.47c-0.93,0.93-1.47,2.22-1.47,3.53c0,1.32,0.54,2.61,1.47,3.54
		s2.22,1.46,3.53,1.46c1.319,0,2.609-0.53,3.54-1.46c0.93-0.93,1.46-2.22,1.46-3.54s-0.53-2.6-1.46-3.53
		C242.736,280.883,241.446,280.343,240.127,280.343z"/>
	<path d="M240.127,344.513c-1.311,0-2.601,0.53-3.53,1.47c-0.93,0.92-1.47,2.21-1.47,3.53c0,1.32,0.54,2.6,1.47,3.53
		c0.93,0.94,2.22,1.47,3.53,1.47c1.319,0,2.609-0.53,3.54-1.46c0.93-0.93,1.46-2.22,1.46-3.54c0-1.32-0.53-2.61-1.46-3.53
		C242.736,345.043,241.446,344.513,240.127,344.513z"/>
	<path d="M243.667,384.642c-0.931-0.93-2.221-1.46-3.54-1.46c-1.311,0-2.601,0.53-3.53,1.46c-0.93,0.93-1.47,2.22-1.47,3.54
		c0,1.31,0.54,2.6,1.47,3.53c0.93,0.93,2.22,1.47,3.53,1.47c1.319,0,2.609-0.54,3.54-1.47c0.93-0.93,1.46-2.21,1.46-3.53
		C245.127,386.863,244.597,385.573,243.667,384.642z"/>
	<path d="M194.353,138.367c0-15.163-12.336-27.499-27.499-27.499s-27.499,12.336-27.499,27.499s12.336,27.499,27.499,27.499
		S194.353,153.53,194.353,138.367z M149.355,138.367c0-9.649,7.85-17.499,17.499-17.499s17.499,7.85,17.499,17.499
		s-7.85,17.499-17.499,17.499S149.355,148.016,149.355,138.367z"/>
</g>
<g>
</g>
<g>
</g>
<g>
</g>
<g>
</g>
<g>
</g>
<g>
</g>
<g>
</g>
<g>
</g>
<g>
</g>
<g>
</g>
<g>
</g>
<g>
</g>
<g>
</g>
<g>
</g>
<g>
</g>
</svg>
