<?xml version="1.0" encoding="iso-8859-1"?>
<!-- Generator: Adobe Illustrator 16.0.0, SVG Export Plug-In . SVG Version: 6.00 Build 0)  -->
<!DOCTYPE svg PUBLIC "-//W3C//DTD SVG 1.1//EN" "http://www.w3.org/Graphics/SVG/1.1/DTD/svg11.dtd">
<svg version="1.1" id="Capa_1" xmlns="http://www.w3.org/2000/svg" xmlns:xlink="http://www.w3.org/1999/xlink" x="0px" y="0px"
	 width="185.255px" height="185.255px" viewBox="0 0 185.255 185.255" style="enable-background:new 0 0 185.255 185.255;fill:#8c8c8c"
	 xml:space="preserve">
<g>
	<path d="M175.299,142.774c6.366-7.862,13.759-20.322,7.71-30.273c-4.603-7.574-15.06-9.217-23.142-8.588
		c-7.443,0.58-15.31,3.285-20.713,8.608c-6.988-6.748-17.992-6.515-25.049-0.288c-8.688-2.646-13.572-10.1-7.334-18.021
		c2.733-3.473,6.666-5.522,10.937-6.392c5.185-1.055,9.246,1.606,13.981,2.496c-1.554,1.565-2.854,3.356-3.768,5.369
		c-1.534,3.381-2.171,10.03,2.82,10.552c0.343,0.036,0.695-0.217,0.863-0.495c1.498-2.488,0.377-5.327,1.76-7.991
		c2.037-3.926,6.498-6.515,10.482-8c1.571-0.586,3.221-0.967,4.887-1.215c0.764,0.355,1.674,0.335,2.504-0.219
		c1.814-0.044,3.629,0.108,5.377,0.641c6.272,1.914,7.789,7.956,10.222,13.189c0.952,2.049,4.29,1.022,4.194-1.137
		c-0.432-9.687-7.36-15.673-15.592-17.531c4.068-6.173,5.871-14.424,2.58-20.929c-3.558-7.034-12.354-9.726-19.617-10.339
		c-4.998-0.422-10.658,0.29-15.336,2.619c-2.057-9.974-12.258-18.08-21.91-19.981c-5.437-1.071-11.337-0.195-15.393,3.797
		c-3.55,3.495-3.635,8.716-2.628,13.471c-4.207-1.731-8.769-2.242-13.267-1.68C58.557,27.688,30.823,9.443,6.918,2.822
		C5.639,2.468,3.881,3.008,3.293,4.297c-16.766,36.795,34.971,37.63,54.453,53.487c0.457,0.372,0.953,0.45,1.404,0.365
		c-0.607,1.987-0.693,4.18-0.234,6.42c-5.291-1.26-11.037-0.458-15.724,2.998c-8.522,6.285-10.008,18.899-2.434,25.932
		c-11.787,11.969-8.272,40.689,8.502,42.728c-3.985,6.703-3.159,15.653-0.275,22.557c2.942,7.04,8.62,13.233,16.509,14.272
		c8.922,1.176,15.186-6.003,19.256-13.065c5.896,11.187,19.23,13.624,29.181,4.466c1.521,3.93,3.994,7.462,7.478,9.881
		c6.947,4.824,15.252,1.66,20.763-3.743c0.522-0.513,0.948-1.099,1.399-1.665c0.834,1.863,1.861,3.685,3.267,5.391
		c6.981,8.474,18.149,11.289,27.104,4.17c4.724-3.754,8.323-11.084,9.303-16.924c1.02-6.073-1.432-11.793-5.342-16.314
		C177.122,144.347,176.238,143.53,175.299,142.774z M115.867,118.93c1.929-3.086,5.058-5.137,8.562-5.937
		c4.293-0.981,8.021,1.245,11.54,3.414c-4.426,7.047-2.015,15.694,2.727,22.161c-1.701-0.574-3.422-1.077-5.203-1.391
		c-4.221-0.739-8.383-0.467-12.307,1.303c-0.707,0.318-1.349,0.716-1.968,1.137c0.285-0.448,0.3-1.026-0.224-1.496
		C112.927,132.666,111.428,126.029,115.867,118.93z M123.531,77.041c-2.146-3.628-4.174-7.804-3.148-11.568
		c0.979-0.052,1.924-0.604,2.296-1.809c0.244-0.793,0.416-1.581,0.548-2.366c3.982-3.319,10.303-3.736,15.178-3.411
		c5.283,0.352,11.457,2.351,14.406,7.057c3.836,6.125-0.904,12.543-4.156,17.932c-2.567,0.119-5.127,0.615-7.541,1.515
		c-2.189,0.816-4.334,1.932-6.289,3.309c-0.086-0.336-0.215-0.657-0.42-0.914c-4.055-5.098-13.293-5.398-19.139-4.219
		c-5.951,1.201-11.121,5.232-14.398,10.226c-1.148,1.748-1.979,3.798-2.422,5.922c-0.691-0.229-1.385-0.399-2.082-0.518
		c0.06,0.009,0.11,0.025,0.17,0.035c1.902,0.267,2.633-2.19,0.799-2.894c-10.088-3.87-12.39-13.602-7.151-22.589
		c2.128-3.65,5.636-6.646,9.659-7.942c6.023-1.938,9.996,1.923,15.008,4.282c0.199,0.093,0.406,0.141,0.614,0.174
		c0.961,3.56,3.245,6.973,5.813,9.519C122.434,79.933,124.371,78.458,123.531,77.041z M101.584,40.644
		c9.814,2.518,14.361,9.787,15.646,18.71c-0.937,1.198-1.553,2.467-1.896,3.774c-5.827-5.616-14.235-5.266-21.086-1.647
		c-0.683-2.872-3.613-5.287-6.474-7.041C85.943,44.661,90.663,37.842,101.584,40.644z M82.9,57.374
		c2.967,1.453,4.975,4.86,7.656,6.496c-2.15,1.679-4.023,3.686-5.408,5.939c-7.039,11.455-2.888,26.286,11.211,28.388
		c-7.325-1.238-14.733,3.478-19.645,9.509c-8.39,0.562-14.599-4.416-14.556-13.297c0.051-10.699,8.748-14.176,17.867-14.828
		c2.051-0.147,2.457-2.893,0.482-3.561c-2.768-0.938-5.459-1.163-7.983-0.824c-2.124-4.28-5.726-7.491-9.897-9.358
		c-0.687-5.574,1.781-10.122,8.995-10.809C75.503,54.658,79.44,55.679,82.9,57.374z M60.044,55.485
		C45.421,39.87,2.133,36.804,8.297,9.828c21.16,5.916,45.084,23.291,55.417,42.507c-1.523,0.906-2.677,2.07-3.506,3.405
		C60.15,55.655,60.121,55.568,60.044,55.485z M45.264,71.838c3.087-2.834,7.535-3.84,11.582-3.115
		c1.688,0.302,3.118,0.917,4.408,1.707c0.311,0.509,0.642,1.012,1.004,1.503c0.329,0.447,0.959,0.508,1.407,0.304
		c1.472,1.312,2.795,2.825,4.152,4.338c-5.449,2.476-9.578,7.723-11.065,13.904c-0.079-1.029-0.925-2.06-2.084-2.126
		c-4.538-0.257-8.294,0.911-11.327,3C39.668,84.735,38.819,77.754,45.264,71.838z M39.459,114.219
		c-1.02-11.961,6.884-17.285,16.267-21.964c0.405-0.202,0.652-0.489,0.819-0.803c-0.187,0.971-0.333,1.954-0.386,2.957
		c-0.587,11.21,7.594,18.455,17.535,17.718c-0.685,1.222-1.265,2.452-1.703,3.659c-1.292,3.553-1.408,6.839-0.645,9.698
		c-6.498-1.077-14.1,2.189-18.91,6.793C45.289,128.243,40.242,123.406,39.459,114.219z M82.752,154.859
		c0.196,0.73,0.441,1.415,0.687,2.097c-0.138,0.104-0.267,0.238-0.374,0.419c-3.469,5.885-9.221,13.154-16.996,11.432
		c-5.457-1.208-9.592-7.528-11.598-12.312c-2.226-5.308-2.911-11.717-0.249-16.99c1.422-2.817,3.838-4.714,6.608-6.101
		c4.217-2.11,9.071-1.106,13.273-2.693c2.617,3.057,6.614,5.035,11.28,5.43C81.463,141.512,81.066,148.558,82.752,154.859z
		 M78.366,116.005c1.56-3.672,4.337-6.672,7.608-8.884c3.884-2.626,8.007-2.648,12.194-3.792c0.134,1.308,0.447,2.589,0.994,3.789
		c2.41,5.299,7.162,7.214,12.432,7.846c-0.096,0.126-0.203,0.238-0.296,0.367c-2.569,3.562-3.964,8.443-3.698,12.962
		c-6.519-1.742-14.558,0.508-19.68,5.035C78.779,131.938,74.672,124.699,78.366,116.005z M112.158,155.873
		c0.06,1.704,0.293,3.42,0.684,5.101c-9.624,7.092-20.037,3.597-23.63-7.896c-1.398-4.471-1.001-9.336,1.434-13.357
		c3.783-6.248,11.331-5.54,17.459-6.924c0.142-0.032,0.244-0.102,0.366-0.154c1.349,3.829,4.277,6.857,9.245,7.673
		c0.236,0.039,0.465-0.001,0.682-0.074C113.869,143.873,111.957,150.193,112.158,155.873z M142.369,165.55
		c-4.688,3.491-10.955,6.471-15.756,4.153c-4.562-2.203-6.959-7.532-7.748-12.718c-0.692-4.554,0.529-10.26,4.713-12.87
		c2.611-1.631,5.994-1.777,8.971-1.372c2.381,0.324,4.703,1.013,6.966,1.801c1.847,0.644,3.72,1.801,5.636,2.474
		C141.835,152.755,140.719,159.332,142.369,165.55z M146.311,141.67c-4.76-6.292-9.978-14.455-5.842-21.894
		c3.586-6.45,11.602-9.154,18.457-10.18c6.408-0.959,14.648-0.167,19.121,5.06c6.411,7.492-3.131,19.375-7.468,25.088
		c-0.027,0.035-0.025,0.073-0.05,0.109c-7.463-3.4-16.828-3.013-22.76,2.735C147.314,142.252,146.822,141.949,146.311,141.67z
		 M169.545,174.093c-5.967,5.546-14.508,1.094-18.609-4.347c-5.418-7.188-5.082-16.136-0.927-23.653
		c7.747-4.665,16.151-4.508,23.106,2.213C180.992,155.917,176.552,167.581,169.545,174.093z"/>
</g>
<g>
</g>
<g>
</g>
<g>
</g>
<g>
</g>
<g>
</g>
<g>
</g>
<g>
</g>
<g>
</g>
<g>
</g>
<g>
</g>
<g>
</g>
<g>
</g>
<g>
</g>
<g>
</g>
<g>
</g>
</svg>
