<?xml version="1.0" encoding="iso-8859-1"?>
<!-- Generator: Adobe Illustrator 18.0.0, SVG Export Plug-In . SVG Version: 6.00 Build 0)  -->
<!DOCTYPE svg PUBLIC "-//W3C//DTD SVG 1.1//EN" "http://www.w3.org/Graphics/SVG/1.1/DTD/svg11.dtd">
<svg version="1.1" id="Capa_1" xmlns="http://www.w3.org/2000/svg" xmlns:xlink="http://www.w3.org/1999/xlink" x="0px" y="0px"
	 viewBox="0 0 407.68 407.68" style="enable-background:new 0 0 407.68 407.68;fill:#8c8c8c" xml:space="preserve">
<g>
	<path d="M96.762,52.903c26.458,7.188,44.937,29.591,44.937,54.478v73.374c0,3.313,2.687,6,6,6s6-2.687,6-6v-73.374
		c0-15.229-5.313-29.661-15.363-41.737c-9.627-11.566-23.273-20.204-38.427-24.321c-3.195-0.868-6.494,1.019-7.363,4.217
		S93.564,52.035,96.762,52.903z"/>
	<path d="M70.436,348.273c-15.938-7.408-27.677-20.575-32.207-36.124c-0.927-3.181-4.257-5.011-7.439-4.082
		c-3.182,0.927-5.009,4.257-4.082,7.439c5.499,18.872,19.594,34.781,38.67,43.648c0.818,0.38,1.679,0.561,2.525,0.561
		c2.262,0,4.429-1.286,5.444-3.472C74.744,353.239,73.44,349.67,70.436,348.273z"/>
	<path d="M407.68,227.968c0-39.854-65.389-71.072-148.864-71.072c-13.099,0-26.078,0.792-38.577,2.354
		c-2.273,0.284-4.188,1.839-4.931,4.006c-0.374,1.088,0,22.28,0,22.28c-3.925,1.109-8.153,2.125-12.299,3.046l-17.737-17.737
		c0,0-2.928-3.003-8.041-3.003V105.43c0-48.863-39.753-88.616-88.615-88.616S0,56.567,0,105.43V302.25
		c0,48.863,39.753,88.616,88.615,88.616c36.829,0,68.478-22.586,81.835-54.632c25.382,8.78,56.48,13.586,88.369,13.586
		c83.468,0,148.851-31.213,148.851-71.06C407.67,278.76,407.68,228.069,407.68,227.968z M258.815,168.896
		c74.091,0,136.696,26.981,136.86,58.946c-0.001,0.039-0.006,0.392-0.006,0.392c-0.208,18.068-21.549,35.928-56.076,47.096
		L234.146,169.883C242.249,169.227,250.505,168.896,258.815,168.896z M227.141,179.848L331.92,284.627v7.791L227.141,187.639
		V179.848z M219.338,196.806l107.005,107.005c-7.587,1.924-15.516,3.525-23.747,4.757v-17.081c0.236-1.824-0.366-3.681-1.695-5.01
		l-87.932-87.932C215.128,197.993,217.245,197.407,219.338,196.806z M283.494,286.04c-8.123,0.658-16.383,0.99-24.675,0.99
		c-29.706,0-57.801-4.134-81.589-11.969v-95.218C177.503,179.754,283.494,286.04,283.494,286.04z M88.615,28.814
		c42.246,0,76.615,34.37,76.615,76.616v92.41H12v-92.41C12,63.184,46.369,28.814,88.615,28.814z M88.615,378.865
		C46.369,378.865,12,344.496,12,302.25v-92.41h153.23v92.41C165.23,344.496,130.861,378.865,88.615,378.865z M395.67,278.76
		c0,32.014-62.67,59.06-136.851,59.06c-30.624,0-60.376-4.581-84.519-12.95c1.909-7.224,2.93-14.805,2.93-22.62v-14.602
		c24.162,7.453,52.161,11.382,81.589,11.382c10.71,0,21.368-0.542,31.777-1.597v18.011c0,1.72,0.738,3.357,2.027,4.496
		c1.103,0.975,2.518,1.504,3.973,1.504c0.245,0,0.492-0.015,0.738-0.045c15.022-1.863,29.267-4.834,42.339-8.831
		c2.523-0.771,4.246-3.1,4.246-5.738v-20.29c23.211-7.591,40.948-18.082,51.75-30.195V278.76z"/>
</g>
<g>
</g>
<g>
</g>
<g>
</g>
<g>
</g>
<g>
</g>
<g>
</g>
<g>
</g>
<g>
</g>
<g>
</g>
<g>
</g>
<g>
</g>
<g>
</g>
<g>
</g>
<g>
</g>
<g>
</g>
</svg>
