<?xml version="1.0" encoding="iso-8859-1"?>
<!-- Generator: Adobe Illustrator 17.1.0, SVG Export Plug-In . SVG Version: 6.00 Build 0)  -->
<!DOCTYPE svg PUBLIC "-//W3C//DTD SVG 1.1//EN" "http://www.w3.org/Graphics/SVG/1.1/DTD/svg11.dtd">
<svg version="1.1" id="Capa_1" xmlns="http://www.w3.org/2000/svg" xmlns:xlink="http://www.w3.org/1999/xlink" x="0px" y="0px"
	 viewBox="0 0 465 465" style="enable-background:new 0 0 465 465;fill:#8c8c8c" xml:space="preserve">
<g>
	<path d="M322.794,0H142.206c-23.597,0-42.794,19.197-42.794,42.794v379.412c0,23.597,19.197,42.794,42.794,42.794h180.588
		c23.597,0,42.794-19.197,42.794-42.794V42.794C365.588,19.197,346.391,0,322.794,0z M114.412,106h236.176v253H114.412V106z
		 M142.206,15h180.588c15.326,0,27.794,12.469,27.794,27.794V91H114.412V42.794C114.412,27.469,126.88,15,142.206,15z M322.794,450
		H142.206c-15.326,0-27.794-12.469-27.794-27.794V374h236.176v48.206C350.588,437.531,338.12,450,322.794,450z"/>
	<path d="M211.5,60.5h42c4.142,0,7.5-3.357,7.5-7.5s-3.358-7.5-7.5-7.5h-42c-4.142,0-7.5,3.357-7.5,7.5S207.358,60.5,211.5,60.5z"/>
	<path d="M232.5,389.5c-12.407,0-22.5,10.094-22.5,22.5s10.093,22.5,22.5,22.5S255,424.406,255,412S244.906,389.5,232.5,389.5z
		 M232.5,419.5c-4.136,0-7.5-3.364-7.5-7.5s3.364-7.5,7.5-7.5s7.5,3.364,7.5,7.5S236.635,419.5,232.5,419.5z"/>
</g>
<g>
</g>
<g>
</g>
<g>
</g>
<g>
</g>
<g>
</g>
<g>
</g>
<g>
</g>
<g>
</g>
<g>
</g>
<g>
</g>
<g>
</g>
<g>
</g>
<g>
</g>
<g>
</g>
<g>
</g>
</svg>
