<?xml version='1.0' encoding='iso-8859-1'?>
<svg version="1.1" xmlns="http://www.w3.org/2000/svg" viewBox="0 0 105.812 105.812" xmlns:xlink="http://www.w3.org/1999/xlink" enable-background="new 0 0 105.812 105.812;fill:#8c8c8c">
  <path d="m105.635,42.171c-0.196-0.285-0.525-0.455-0.873-0.432l-5.879,.295c-1.338,0.067-2.539,1.409-4.356,3.44-2.961,3.308-7.015,7.835-12.954,8.021-5.19-15.525-15.8-25.025-29.646-26.304 2.155-1.163 3.623-3.441 3.623-6.058 0-3.793-3.085-6.878-6.878-6.878-3.793,0-6.878,3.085-6.878,6.878 0,2.617 1.47,4.897 3.626,6.059-11.025,1.009-20.218,7.144-25.926,16.743-0.105-0.148-0.236-0.281-0.417-0.356-5.493-2.295-10.548-1.838-14.239,1.289-4.045,3.426-5.755,9.491-4.356,15.451 1.628,6.948 6.978,12.026 14.677,13.944 0.944,2.252 2.262,4.343 3.943,6.233 6.159,6.925 17.213,11.059 29.568,11.059 12.884,0 24.653-4.532 30.711-11.829 1.439-1.732 2.553-3.616 3.347-5.615 0.03-0.002 0.059-0.003 0.089-0.007 10.47-1.567 12.983-7.537 19.056-21.958 1.121-2.662 2.391-5.678 3.854-9.005 0.14-0.318 0.106-0.685-0.092-0.97zm-61.842-21.036c0-2.689 2.188-4.878 4.878-4.878 2.69,0 4.878,2.188 4.878,4.878 0,2.69-2.188,4.879-4.878,4.879-2.69-3.55271e-15-4.878-2.189-4.878-4.879zm4.878,7.908c9.912,0 18.274,4.313 24.275,12.108h-49.105c6.001-7.625 14.714-12.108 24.83-12.108zm-46.243,30.821c-1.21-5.156 0.278-10.569 3.702-13.468 3.087-2.616 7.412-2.961 12.174-0.97 0.102,0.043 0.208,0.055 0.312,0.062-2.566,4.793-4.311,10.362-5.036,16.535-0.412,3.512-0.149,6.85 0.759,9.934-6.244-1.953-10.552-6.298-11.911-12.093zm75.416,18.584c-5.689,6.851-16.868,11.106-29.173,11.106-11.793,0-22.288-3.883-28.074-10.388-4.112-4.622-5.804-10.312-5.03-16.911 0.868-7.398 3.261-13.892 6.821-19.129 0.041,0.005 0.079,0.024 0.122,0.024h51.868c3.456,5.158 5.993,11.608 7.406,19.172 1.153,6.165-0.173,11.591-3.94,16.126zm22.187-27.079c-5.726,13.598-8.012,18.969-16.583,20.585 0.846-3.121 0.96-6.484 0.304-9.998-0.424-2.266-0.949-4.431-1.562-6.502 6.488-0.467 10.89-5.364 13.827-8.646 1.039-1.161 2.462-2.751 2.966-2.776l4.266-.214c-1.201,2.758-2.263,5.284-3.218,7.551z"/>
</svg>
