<?xml version="1.0" encoding="iso-8859-1"?>
<!-- Generator: Adobe Illustrator 18.1.1, SVG Export Plug-In . SVG Version: 6.00 Build 0)  -->
<svg version="1.1" id="Capa_1" xmlns="http://www.w3.org/2000/svg" xmlns:xlink="http://www.w3.org/1999/xlink" x="0px" y="0px"
	 viewBox="0 0 60.478 60.478" style="enable-background:new 0 0 60.478 60.478;fill:#8c8c8c" xml:space="preserve">
<g>
	<path d="M50.252,27.739l-0.732-0.025l-0.173,0.711c-0.167,0.687-0.31,1.303-0.442,1.883c-0.388,1.683-0.693,3.012-1.341,4.889
		l-0.255,0.739l0.695,0.356c1.023,0.523,2.337,0.633,3.258,0.633c1.867,0,3.269-0.46,4.165-1.368
		c0.742-0.751,1.111-1.765,1.097-3.015C56.498,30.448,55.39,27.914,50.252,27.739z M54.148,34.293
		c-0.546,0.553-1.517,0.833-2.885,0.833c-0.649,0-1.235-0.062-1.718-0.18c0.498-1.558,0.787-2.813,1.114-4.233
		c0.083-0.36,0.169-0.734,0.262-1.13c3.361,0.303,3.789,1.828,3.803,2.983C54.733,33.326,54.545,33.891,54.148,34.293z"/>
	<path d="M51.684,23.282c0.047-0.852,0.06-1.666,0.039-2.469L51.7,19.937h-6.478L37.75,9.685c-0.165-0.226-0.426-0.363-0.706-0.37
		c-0.297-0.004-0.547,0.118-0.723,0.335l-8.28,10.286H0l0.102,0.992c1.118,10.855,6.146,21.409,8.012,25.02
		c-1.211,0.236-2.128,1.303-2.128,2.581c0,1.452,1.181,2.632,2.632,2.632h35.489c1.45,0,2.63-1.181,2.63-2.632
		c0-1.45-1.18-2.629-2.63-2.629h-0.003c0.681-1.14,1.686-2.924,2.749-5.173c1.247,0.536,2.604,0.815,3.971,0.815
		c5.323,0,9.654-4.104,9.654-9.148C60.478,27.625,56.606,23.696,51.684,23.282z M36.987,11.695l6.007,8.242H30.352L36.987,11.695z
		 M50.823,39.743c-1.388,0-2.76-0.351-3.968-1.014l-0.851-0.467l-0.402,0.883c-1.949,4.281-3.851,7.125-3.87,7.154l-0.942,1.402
		h3.316c0.457,0,0.829,0.372,0.829,0.829c0,0.459-0.372,0.833-0.829,0.833H8.617c-0.458,0-0.831-0.373-0.831-0.833
		c0-0.457,0.373-0.829,0.831-0.829h2.508l-0.753-1.341c-0.069-0.124-6.805-12.231-8.366-24.624h47.926
		c-0.005,0.752-0.04,1.526-0.108,2.342l-0.079,0.973h0.977c0.045,0,0.088-0.002,0.102-0.006c4.331,0,7.854,3.297,7.854,7.349
		C58.677,36.447,55.154,39.743,50.823,39.743z"/>
</g>
<g>
</g>
<g>
</g>
<g>
</g>
<g>
</g>
<g>
</g>
<g>
</g>
<g>
</g>
<g>
</g>
<g>
</g>
<g>
</g>
<g>
</g>
<g>
</g>
<g>
</g>
<g>
</g>
<g>
</g>
</svg>
