<?xml version="1.0" encoding="iso-8859-1"?>
<!-- Generator: Adobe Illustrator 18.1.1, SVG Export Plug-In . SVG Version: 6.00 Build 0)  -->
<svg version="1.1" id="Capa_1" xmlns="http://www.w3.org/2000/svg" xmlns:xlink="http://www.w3.org/1999/xlink" x="0px" y="0px"
	 viewBox="0 0 165.76 165.76" style="enable-background:new 0 0 165.76 165.76;fill:#8c8c8c" xml:space="preserve">
<g>
	<path style="fill:#8c8c8c;" d="M165.754,25.061h-64.293L74.932,70.898l-51.005-37.4l-3.526,4.821l46.339,33.963H19.183v35.163
		h-8.562v11.934h8.568V132.9h39.011c1.48,11.164,10.967,19.834,22.549,19.834c11.564,0,21.051-8.67,22.525-19.834h62.485
		L165.754,25.061L165.754,25.061z M80.744,146.767c-9.314,0-16.886-7.566-16.886-16.862s7.578-16.85,16.886-16.85
		c9.302,0,16.868,7.566,16.868,16.85C97.612,139.201,90.04,146.767,80.744,146.767z M159.787,126.921h-56.518
		c-1.474-11.164-10.961-19.834-22.525-19.834c-11.576,0-21.069,8.67-22.549,19.834H25.15V78.25h52.419l27.334-47.222h54.883V126.921
		z M90.04,78.983l21.302-36.78h28.253v36.78H90.04z M12.465,55.581c0-4.773,3.872-8.646,8.652-8.646s8.652,3.873,8.652,8.646
		c0,4.779-3.872,8.646-8.652,8.646S12.465,60.361,12.465,55.581z M6.76,43.063c-3.735,0-6.76-3.037-6.76-6.766s3.025-6.76,6.76-6.76
		s6.76,3.031,6.76,6.76S10.496,43.063,6.76,43.063z M15.92,18.396c0-2.96,2.405-5.37,5.376-5.37s5.37,2.411,5.37,5.37
		c0,2.972-2.399,5.382-5.37,5.382S15.92,21.367,15.92,18.396z"/>
</g>
<g>
</g>
<g>
</g>
<g>
</g>
<g>
</g>
<g>
</g>
<g>
</g>
<g>
</g>
<g>
</g>
<g>
</g>
<g>
</g>
<g>
</g>
<g>
</g>
<g>
</g>
<g>
</g>
<g>
</g>
</svg>
