<?xml version="1.0" encoding="UTF-8" ?>
<!DOCTYPE svg PUBLIC "-//W3C//DTD SVG 1.1//EN" "http://www.w3.org/Graphics/SVG/1.1/DTD/svg11.dtd">
<svg width="1878pt" height="477pt" viewBox="0 0 1878 477" version="1.1" xmlns="http://www.w3.org/2000/svg">
<g id="#000000ff">
<path fill="#559b61" opacity="1.00" d=" M 275.65 24.80 C 282.76 19.91 293.03 18.64 300.41 23.65 C 303.78 25.77 305.68 29.44 307.03 33.05 C 308.51 37.15 307.75 42.31 304.11 45.05 C 300.31 48.46 294.82 47.81 290.14 47.39 C 286.50 46.92 282.46 44.19 279.07 46.87 C 275.56 48.89 276.06 53.44 276.46 56.85 C 278.02 64.38 282.70 70.79 287.69 76.46 C 304.64 74.40 323.17 80.12 334.26 93.54 C 332.01 93.53 329.77 93.52 327.53 93.56 C 327.51 94.77 327.51 95.99 327.51 97.21 C 331.71 97.24 336.13 97.83 339.43 100.69 C 344.34 104.24 346.99 110.06 348.74 115.70 C 342.98 115.91 337.11 117.89 333.18 122.26 C 326.86 129.35 328.46 142.27 337.11 146.78 C 342.56 150.32 349.33 150.39 355.51 149.14 C 355.43 156.42 356.13 163.84 354.04 170.92 C 352.47 176.63 353.19 183.31 349.13 188.08 C 346.31 191.47 343.42 195.36 338.93 196.54 C 326.42 200.48 311.80 194.68 305.64 183.06 C 304.79 180.06 305.30 176.92 305.54 173.88 C 307.56 173.37 309.57 172.82 311.58 172.26 C 311.54 171.01 311.50 169.76 311.46 168.51 C 308.68 169.12 305.84 169.85 302.98 169.40 C 300.42 169.09 299.55 165.25 296.86 165.53 C 293.49 168.56 298.68 172.09 301.49 173.06 C 301.38 176.37 300.96 179.72 301.53 183.01 C 302.15 185.70 303.96 187.88 305.64 189.99 C 301.93 187.08 297.90 184.62 294.04 181.92 C 290.38 179.40 287.47 175.89 283.51 173.79 C 281.04 179.11 279.27 185.04 274.82 189.12 C 276.93 192.45 279.33 195.93 279.47 200.02 C 279.64 203.51 279.39 207.13 280.87 210.41 C 285.22 221.29 291.00 232.26 300.67 239.33 C 309.67 245.68 321.45 248.48 332.20 245.54 C 337.80 243.42 343.14 240.46 348.00 236.98 C 351.19 231.42 347.79 225.02 347.44 219.16 C 347.40 215.08 345.90 209.83 349.87 207.06 C 354.27 208.31 355.44 213.07 356.24 217.00 C 356.80 221.28 357.13 225.59 357.43 229.90 C 361.50 224.15 366.19 218.63 372.17 214.80 C 374.10 213.62 376.88 212.48 378.84 214.21 C 380.28 214.93 379.80 216.72 379.81 218.01 C 379.60 221.48 376.51 223.66 374.22 225.87 C 376.64 224.52 379.33 223.83 382.04 223.32 C 382.65 223.71 383.88 224.47 384.49 224.85 C 384.86 227.09 384.54 229.34 383.08 231.14 C 384.25 232.08 385.43 233.01 386.61 233.95 C 386.55 237.62 383.31 238.93 380.27 239.65 C 381.65 241.83 382.58 245.61 378.99 246.04 C 370.49 247.34 361.76 246.72 353.26 245.63 C 346.17 249.59 339.24 254.52 331.00 255.72 C 319.34 257.73 307.29 253.96 297.89 247.05 C 287.46 239.66 281.10 228.06 277.34 216.10 C 274.36 219.84 271.73 223.87 268.48 227.39 C 263.74 232.06 258.37 236.22 252.22 238.87 C 255.50 245.91 255.14 253.91 254.09 261.42 C 252.14 270.66 250.31 280.12 245.86 288.54 C 242.58 294.81 237.94 300.24 232.88 305.14 C 241.75 307.27 247.47 315.22 251.44 322.88 C 255.78 331.28 258.22 340.46 260.93 349.47 C 263.72 358.05 265.77 366.98 265.74 376.05 C 265.69 378.89 266.77 381.57 268.46 383.82 C 275.43 376.02 285.22 371.64 294.98 368.47 C 300.65 366.49 307.72 367.49 311.65 372.32 C 314.88 375.84 314.53 381.82 311.20 385.16 C 304.52 392.81 294.61 396.14 286.14 401.29 C 282.19 403.63 277.56 405.33 272.90 404.74 C 269.68 404.54 267.15 402.17 265.23 399.79 C 256.76 386.18 256.05 369.77 252.57 354.53 C 248.52 341.17 245.84 326.48 236.12 315.84 C 233.66 312.64 229.42 312.36 225.84 311.36 C 222.77 314.63 218.57 316.99 216.63 321.17 C 214.83 324.84 212.90 328.45 210.69 331.90 C 206.67 338.13 203.66 345.07 198.54 350.54 C 193.06 357.39 185.41 361.97 177.58 365.66 C 170.83 368.65 163.37 371.51 155.88 369.86 C 151.18 369.13 147.08 366.61 143.09 364.18 C 144.72 371.36 146.20 378.62 145.52 386.03 C 145.96 390.65 141.48 394.63 136.98 394.09 C 131.74 393.50 126.78 390.53 123.90 386.11 C 120.02 379.81 118.55 372.30 118.26 364.99 C 117.92 358.61 117.89 351.44 122.62 346.51 C 124.52 343.51 128.64 343.87 131.62 344.65 C 137.09 347.58 140.79 352.99 146.42 355.70 C 150.43 357.69 154.37 360.48 159.02 360.55 C 163.65 361.00 168.01 359.09 172.13 357.24 C 177.32 354.59 182.78 352.15 186.95 347.97 C 193.79 341.27 199.04 333.20 204.70 325.54 C 198.88 326.97 192.88 325.97 186.98 326.56 C 182.86 327.10 178.90 324.73 176.76 321.31 C 172.94 315.06 171.87 307.22 173.42 300.09 C 174.67 294.86 175.04 289.48 176.20 284.24 C 180.94 267.33 192.93 252.90 207.79 243.79 C 215.62 238.98 223.96 234.62 233.11 233.04 C 230.47 226.85 231.60 220.15 232.70 213.78 C 220.24 223.52 207.98 233.52 196.42 244.33 C 189.44 251.11 184.54 259.85 176.73 265.80 C 172.50 268.99 168.02 271.97 163.01 273.78 C 159.70 275.03 156.20 273.65 152.90 273.09 C 121.02 312.86 88.99 352.50 57.06 392.21 C 55.49 395.26 56.55 399.32 54.04 402.05 C 47.82 411.34 30.88 404.86 31.52 394.01 C 31.44 388.90 35.93 385.22 40.41 383.76 C 36.59 380.08 32.15 377.15 28.10 373.75 C 31.90 368.72 36.34 364.20 40.08 359.10 C 47.54 348.59 55.56 338.46 63.91 328.65 C 64.76 327.58 65.89 328.93 66.64 329.41 C 72.75 334.36 78.18 340.09 83.92 345.44 C 86.13 346.24 87.03 344.52 86.34 342.66 C 80.94 336.04 73.81 331.10 67.97 324.93 C 68.50 322.01 71.20 320.20 72.86 317.92 C 82.04 306.46 92.50 296.14 102.13 285.09 C 107.68 289.31 112.82 294.26 118.76 297.85 C 120.56 296.61 121.66 294.60 123.09 292.98 C 130.59 283.67 138.05 274.31 145.61 265.05 C 145.36 261.14 144.16 256.44 147.23 253.29 C 149.34 251.24 151.88 249.22 154.86 248.74 C 157.31 249.83 159.75 251.13 161.72 252.98 C 160.67 254.31 159.50 255.53 158.37 256.78 C 158.69 257.41 159.33 258.67 159.65 259.30 C 160.26 259.61 161.48 260.23 162.09 260.54 C 175.15 253.70 180.66 238.96 191.90 230.05 C 197.30 225.77 202.01 220.69 207.50 216.52 C 217.92 208.13 228.34 199.49 240.40 193.53 C 245.45 191.23 249.15 186.77 254.32 184.69 C 257.76 183.02 261.66 183.17 265.38 183.27 C 266.46 179.74 268.04 176.40 269.28 172.93 C 258.31 171.69 248.33 165.13 241.62 156.56 C 235.91 148.41 232.08 137.97 234.44 128.00 C 236.32 118.08 240.24 108.05 247.74 101.03 C 238.95 94.78 230.33 87.64 225.35 77.85 C 220.65 68.75 216.15 58.36 218.57 47.93 C 219.46 42.27 223.19 37.72 225.91 32.84 C 229.18 27.22 235.39 24.02 241.62 22.90 C 248.37 21.22 255.88 27.02 255.80 34.01 C 255.93 38.53 255.42 43.69 251.58 46.69 C 246.24 51.68 238.02 48.41 232.10 52.08 C 230.80 52.94 230.01 54.44 230.31 56.00 C 230.86 65.34 236.16 73.90 242.95 80.11 C 247.04 83.86 251.42 87.32 255.92 90.57 C 257.42 90.61 258.35 89.26 259.51 88.52 C 264.27 84.49 270.02 81.94 275.66 79.41 C 269.30 71.72 265.25 62.02 264.68 52.03 C 264.89 42.14 267.73 31.34 275.65 24.80 M 253.61 111.68 C 250.27 114.28 246.15 117.61 247.56 122.40 C 248.77 122.46 249.99 122.52 251.21 122.57 C 250.77 118.01 255.03 115.52 258.24 113.25 C 261.41 110.99 265.78 110.37 267.96 106.85 C 267.22 106.54 265.75 105.92 265.01 105.61 C 260.93 107.02 257.09 109.12 253.61 111.68 M 264.11 121.98 C 257.04 122.69 250.69 128.29 249.75 135.45 C 247.64 144.71 253.74 155.02 262.94 157.42 C 271.77 158.96 283.13 155.53 286.19 146.26 C 288.64 140.07 286.08 132.98 281.46 128.54 C 276.90 124.17 270.48 121.38 264.11 121.98 M 41.27 392.29 C 35.97 394.44 42.86 402.31 46.17 398.16 C 49.98 395.21 44.78 389.89 41.27 392.29 Z" />
<path fill="#559b61" opacity="1.00" d=" M 343.43 124.46 C 346.65 122.27 351.12 123.68 353.44 126.55 C 356.90 130.23 355.92 137.04 351.25 139.24 C 347.34 140.68 342.30 139.01 340.56 135.07 C 339.78 131.35 339.86 126.73 343.43 124.46 Z" />
<path fill="#559b61" opacity="1.00" d=" M 266.75 130.85 C 272.51 128.53 280.38 133.17 278.73 139.89 C 277.66 148.27 264.57 148.18 261.93 140.93 C 260.06 136.92 262.93 132.36 266.75 130.85 Z" />
<path fill="#559b61" opacity="1.00" d=" M 1169.48 146.67 C 1165.68 140.54 1173.28 133.02 1179.57 135.09 C 1186.31 136.82 1189.33 143.63 1193.25 148.67 C 1194.61 150.15 1195.74 152.56 1198.04 152.58 C 1204.03 152.74 1210.03 152.64 1216.04 152.65 C 1215.18 151.49 1214.33 150.34 1213.50 149.18 C 1213.55 147.15 1213.63 145.12 1213.75 143.09 C 1216.57 140.61 1220.11 138.36 1224.04 138.75 C 1226.72 139.41 1228.74 141.48 1230.83 143.19 C 1233.72 145.77 1237.21 147.53 1240.27 149.91 C 1241.99 151.12 1243.67 152.85 1245.97 152.65 C 1254.98 152.84 1263.99 152.55 1273.00 152.72 C 1276.95 152.89 1280.84 154.02 1284.43 155.67 C 1288.50 157.82 1291.14 163.98 1287.92 167.87 C 1285.75 170.46 1282.13 170.99 1278.94 170.92 C 1250.30 170.54 1221.65 170.84 1193.01 170.72 C 1188.96 170.79 1184.72 169.09 1182.80 165.34 C 1178.89 158.74 1173.48 153.18 1169.48 146.67 Z" />
<path fill="#559b61" opacity="1.00" d=" M 1514.26 143.41 C 1522.35 142.94 1530.45 143.04 1538.54 143.45 L 1538.37 144.55 C 1556.04 147.55 1572.30 157.57 1583.12 171.84 C 1594.63 186.87 1599.60 206.59 1597.07 225.29 C 1595.29 236.45 1591.41 247.37 1584.77 256.60 C 1561.87 289.02 1538.86 321.38 1515.93 353.79 C 1503.58 370.99 1491.61 388.47 1479.05 405.52 C 1473.75 399.90 1469.29 393.63 1464.92 387.28 C 1451.62 368.71 1438.75 349.83 1425.47 331.24 C 1421.54 326.21 1418.69 320.46 1414.80 315.42 C 1405.05 301.85 1396.17 287.63 1385.56 274.71 C 1357.00 234.13 1328.34 193.61 1299.77 153.04 C 1297.98 150.59 1296.13 148.17 1294.77 145.45 C 1302.79 145.30 1310.82 145.38 1318.85 145.41 C 1324.24 153.12 1329.65 160.81 1334.96 168.58 C 1336.99 168.63 1339.00 168.64 1341.06 168.63 C 1336.23 160.62 1330.49 153.15 1325.09 145.51 C 1332.00 145.36 1338.93 145.13 1345.83 145.66 C 1349.63 152.51 1354.71 158.56 1359.05 165.08 C 1376.42 189.68 1393.76 214.29 1411.14 238.88 C 1416.74 248.19 1423.47 256.75 1429.52 265.77 C 1434.58 272.87 1439.24 280.27 1444.95 286.88 C 1455.88 302.41 1467.00 317.82 1477.69 333.51 C 1478.15 333.55 1479.07 333.62 1479.52 333.65 C 1502.38 300.81 1525.73 268.31 1548.82 235.64 C 1554.12 229.06 1557.06 220.58 1556.30 212.10 C 1554.93 201.31 1547.67 191.57 1537.67 187.30 C 1532.17 184.67 1525.89 185.21 1520.00 185.54 C 1512.13 186.89 1504.99 191.80 1500.59 198.43 C 1487.73 216.56 1474.89 234.70 1462.03 252.83 C 1458.10 258.58 1453.77 264.06 1450.13 270.00 C 1448.39 269.89 1447.09 269.03 1446.32 267.53 C 1444.20 264.28 1441.74 261.28 1439.56 258.08 C 1438.61 256.29 1440.20 254.75 1441.09 253.36 C 1445.52 247.33 1449.68 241.11 1454.17 235.12 C 1455.84 233.01 1453.18 231.30 1451.98 229.87 C 1448.95 232.71 1446.88 236.34 1444.47 239.67 C 1441.75 243.61 1438.73 247.37 1436.46 251.60 C 1435.63 251.49 1434.83 251.39 1434.05 251.28 C 1431.44 246.62 1427.83 242.64 1424.55 238.46 C 1423.25 237.40 1423.04 235.48 1424.24 234.24 C 1439.24 213.46 1453.86 192.40 1468.81 171.58 C 1475.62 163.13 1483.92 155.54 1493.93 151.09 C 1500.30 147.91 1507.14 144.98 1514.40 145.15 C 1514.37 144.71 1514.30 143.84 1514.26 143.41 M 1499.86 168.82 C 1500.78 170.37 1501.59 173.23 1504.03 172.39 C 1510.70 168.91 1517.95 165.74 1525.66 166.45 C 1525.69 164.70 1525.72 162.94 1525.76 161.20 C 1516.61 161.26 1507.63 164.05 1499.86 168.82 M 1532.27 161.13 C 1532.33 162.85 1532.41 164.56 1532.52 166.28 C 1537.92 166.66 1543.12 168.35 1548.20 170.16 C 1550.35 170.72 1552.89 172.55 1555.00 170.92 C 1555.41 169.38 1556.50 167.01 1554.10 166.71 C 1547.05 164.08 1539.80 161.77 1532.27 161.13 M 1559.61 176.39 C 1562.15 179.40 1565.48 181.76 1567.54 185.18 C 1569.55 188.55 1571.01 192.22 1572.72 195.75 C 1574.43 195.68 1576.15 195.60 1577.90 195.51 C 1576.41 191.13 1574.50 186.89 1572.26 182.85 C 1569.33 178.56 1565.69 174.79 1561.91 171.25 C 1560.81 172.73 1558.50 174.30 1559.61 176.39 M 1493.91 173.26 C 1487.21 180.35 1480.79 187.77 1475.45 195.94 C 1474.50 198.50 1477.17 199.48 1479.12 199.90 C 1484.42 191.99 1490.01 184.00 1497.42 177.91 C 1497.46 177.04 1497.52 176.17 1497.61 175.30 C 1496.36 174.62 1495.13 173.95 1493.91 173.26 M 1340.75 175.60 C 1340.63 176.18 1340.41 177.35 1340.30 177.93 C 1340.60 177.58 1341.20 176.87 1341.51 176.52 C 1343.04 176.45 1344.61 176.37 1346.18 176.27 C 1344.37 176.58 1342.59 176.93 1340.84 177.33 C 1346.80 184.77 1351.62 193.05 1357.46 200.57 C 1358.87 202.82 1361.65 202.48 1363.96 202.71 C 1363.65 200.99 1363.14 199.34 1361.99 198.01 C 1356.45 190.69 1351.66 182.81 1345.95 175.62 C 1344.19 175.61 1342.47 175.61 1340.75 175.60 M 1574.54 202.66 C 1574.27 210.40 1575.84 218.54 1572.88 225.93 C 1573.59 226.70 1574.32 227.47 1575.07 228.24 C 1576.10 228.33 1577.17 228.42 1578.26 228.51 C 1578.60 224.28 1580.39 220.29 1580.42 216.03 C 1580.45 211.15 1580.88 206.14 1579.22 201.46 C 1577.64 201.87 1576.10 202.27 1574.54 202.66 M 1469.90 203.44 C 1465.16 210.46 1460.37 217.45 1455.19 224.15 C 1456.49 225.33 1457.61 227.19 1459.54 227.33 C 1464.64 220.27 1469.51 213.03 1474.71 206.04 C 1474.30 205.39 1473.48 204.10 1473.07 203.46 C 1471.99 203.45 1470.94 203.44 1469.90 203.44 M 1363.78 209.15 C 1368.27 217.05 1373.99 224.21 1379.06 231.76 C 1380.37 234.46 1383.69 233.30 1386.07 233.60 C 1381.86 225.57 1375.82 218.64 1370.95 211.00 C 1369.57 208.31 1366.13 209.45 1363.78 209.15 M 1570.91 234.30 C 1567.88 241.58 1562.89 247.87 1558.23 254.18 C 1559.42 255.56 1560.68 256.87 1562.02 258.15 C 1567.00 250.52 1573.86 243.56 1575.93 234.46 C 1574.24 234.39 1572.56 234.34 1570.91 234.30 M 1385.05 239.66 C 1389.63 247.99 1395.93 255.29 1400.98 263.37 C 1403.00 263.94 1404.99 264.44 1407.07 264.86 C 1406.70 263.08 1406.29 261.31 1405.10 259.90 C 1400.05 253.15 1395.60 245.97 1390.43 239.31 C 1388.62 239.42 1386.83 239.54 1385.05 239.66 M 1552.42 262.46 C 1547.29 269.30 1542.67 276.53 1537.23 283.14 C 1538.42 284.44 1539.36 286.11 1541.06 286.86 C 1546.26 280.34 1550.80 273.31 1555.85 266.67 C 1557.21 265.22 1556.51 263.18 1556.45 261.44 C 1555.03 261.54 1553.17 260.81 1552.42 262.46 M 1406.71 271.35 C 1412.01 279.09 1417.28 286.85 1422.91 294.37 C 1424.92 294.44 1426.94 294.49 1428.98 294.51 C 1423.67 286.28 1417.81 278.37 1412.16 270.35 C 1410.32 270.65 1408.51 270.99 1406.71 271.35 M 1532.91 289.13 C 1528.10 296.48 1522.87 303.57 1517.55 310.56 C 1517.54 311.03 1517.51 311.97 1517.50 312.45 C 1518.14 313.18 1518.81 313.91 1519.49 314.65 C 1520.29 314.52 1521.11 314.39 1521.95 314.25 C 1526.16 306.78 1531.97 300.35 1536.60 293.14 C 1537.12 290.53 1535.24 289.26 1532.91 289.13 M 1427.89 301.40 C 1433.47 310.28 1439.66 318.83 1445.90 327.28 C 1447.53 327.39 1449.17 327.52 1450.84 327.65 C 1450.56 326.49 1450.71 325.17 1449.94 324.20 C 1444.55 316.72 1439.26 309.16 1434.09 301.52 C 1432.02 301.45 1429.93 301.40 1427.89 301.40 M 1511.91 318.20 C 1507.28 325.68 1501.64 332.48 1496.73 339.75 C 1497.58 341.23 1499.81 345.32 1501.20 342.38 C 1505.87 335.90 1510.58 329.44 1515.22 322.94 C 1516.98 320.43 1514.81 317.47 1511.91 318.20 M 1450.91 334.40 C 1455.73 342.36 1461.45 349.78 1466.75 357.43 C 1468.34 357.46 1469.96 357.49 1471.59 357.52 C 1471.55 356.28 1471.52 355.04 1471.52 353.80 C 1471.10 354.70 1470.70 355.60 1470.32 356.50 C 1469.15 356.58 1468.02 356.67 1466.90 356.77 C 1468.35 356.39 1471.60 356.57 1470.59 354.07 C 1466.23 347.45 1461.42 341.12 1457.07 334.49 C 1455.01 334.42 1452.93 334.39 1450.91 334.40 M 1490.93 347.37 C 1487.24 353.41 1482.60 358.79 1478.86 364.80 C 1478.46 364.43 1477.65 363.69 1477.25 363.32 C 1475.44 363.35 1473.65 363.39 1471.88 363.45 C 1472.04 364.13 1472.35 365.49 1472.51 366.17 C 1474.65 368.51 1475.88 372.34 1479.45 372.77 C 1484.71 365.07 1490.24 357.58 1495.70 350.03 C 1495.32 349.35 1494.56 348.00 1494.19 347.32 C 1493.08 347.32 1491.99 347.34 1490.93 347.37 Z" />
<path fill="#559b61" opacity="1.00" d=" M 638.24 168.86 C 641.59 168.08 645.05 168.20 648.47 168.47 C 648.64 172.32 648.60 176.18 648.07 180.00 C 647.40 183.69 648.78 187.32 648.67 191.01 C 648.68 203.08 648.75 215.15 648.47 227.22 C 647.23 238.79 648.01 250.46 647.38 262.06 C 645.94 272.33 647.39 282.76 645.88 293.03 C 645.55 302.67 645.56 312.33 645.28 321.98 C 644.07 331.61 644.69 341.34 644.20 351.01 C 643.12 356.61 643.67 362.35 642.83 367.97 C 642.38 373.96 642.59 379.98 642.40 385.99 C 642.52 391.40 641.30 396.72 641.26 402.13 C 635.98 404.13 630.28 402.95 624.81 403.72 C 618.12 404.72 611.26 403.80 604.64 405.46 C 604.56 392.64 604.78 379.81 604.74 366.98 C 606.09 356.05 605.50 345.01 605.68 334.02 C 605.75 314.65 605.39 295.29 605.75 275.92 C 607.09 261.63 606.57 247.22 606.55 232.88 C 603.80 233.74 602.03 236.07 600.03 237.98 C 595.54 242.50 590.92 246.88 586.13 251.09 C 574.32 262.72 561.66 273.47 548.44 283.47 C 545.24 285.71 542.19 289.60 537.83 288.64 C 535.89 287.12 534.25 285.25 532.18 283.93 C 524.10 278.75 516.62 272.71 509.23 266.61 C 494.33 254.78 479.48 242.81 465.89 229.50 C 465.51 230.04 465.13 230.59 464.77 231.14 C 464.45 244.09 465.50 257.15 463.69 270.02 C 463.50 286.69 463.49 303.37 463.61 320.04 C 465.43 335.96 464.20 352.05 464.82 368.04 C 465.89 376.71 464.98 385.47 465.48 394.17 C 464.13 394.91 462.54 394.94 461.05 394.83 C 452.72 394.30 444.36 394.64 436.03 394.74 C 432.37 394.01 428.68 393.48 424.94 393.46 C 429.64 393.22 434.29 393.94 438.95 394.42 C 446.86 394.58 454.79 394.09 462.69 394.75 C 463.37 394.06 464.06 393.37 464.74 392.68 C 459.28 394.07 453.61 393.30 448.05 393.50 C 443.37 393.28 438.59 394.01 434.01 392.81 C 429.90 392.52 425.79 392.55 421.70 392.28 C 423.28 385.63 422.15 378.75 422.85 372.02 C 424.14 364.09 423.02 356.03 424.32 348.10 C 424.88 306.07 424.05 264.03 424.65 222.00 C 425.98 213.66 425.05 205.19 426.38 196.85 C 426.23 189.46 427.86 182.19 427.62 174.79 C 428.06 174.23 428.95 173.11 429.40 172.55 C 435.24 172.26 441.16 171.94 446.94 173.10 C 453.51 173.92 460.35 172.81 466.77 174.78 C 474.22 181.78 481.84 188.62 488.99 195.95 C 495.44 200.77 500.54 207.07 506.76 212.17 C 518.15 222.80 530.50 232.41 541.44 243.51 C 541.92 243.50 542.89 243.48 543.38 243.47 C 552.60 234.31 562.91 226.24 571.07 216.05 C 581.82 203.03 592.01 189.52 601.98 175.89 C 603.58 174.19 606.16 174.33 608.28 173.73 C 618.24 171.96 628.30 170.83 638.24 168.86 Z" />
<path fill="#559b61" opacity="1.00" d=" M 1210.20 193.64 C 1217.12 193.57 1224.05 193.54 1230.99 193.60 C 1232.63 193.36 1233.77 194.65 1235.00 195.53 C 1236.61 195.65 1238.25 195.76 1239.90 195.87 C 1239.85 195.31 1239.76 194.21 1239.72 193.65 C 1246.83 193.54 1253.94 193.55 1261.06 193.64 C 1293.15 238.41 1324.55 283.70 1356.50 328.56 C 1356.76 328.54 1357.27 328.50 1357.53 328.48 C 1365.99 316.61 1374.42 304.70 1382.81 292.78 C 1383.14 292.70 1383.80 292.54 1384.13 292.45 C 1387.70 297.82 1391.87 302.76 1395.36 308.17 C 1395.61 310.23 1393.32 311.45 1392.30 312.95 C 1392.10 315.51 1392.74 318.43 1396.06 317.78 C 1396.75 316.20 1397.33 314.34 1398.99 313.49 C 1400.35 313.91 1400.72 315.50 1401.56 316.53 C 1403.64 320.14 1406.52 323.22 1408.55 326.87 C 1408.96 328.41 1407.57 329.48 1406.91 330.69 C 1399.60 340.83 1392.43 351.08 1385.17 361.27 C 1376.50 375.14 1366.12 387.84 1357.13 401.49 C 1356.42 401.38 1355.74 401.28 1355.08 401.19 C 1349.77 391.18 1343.12 381.95 1336.50 372.79 C 1332.59 368.05 1329.87 362.52 1326.15 357.66 C 1302.77 324.50 1279.37 291.37 1256.00 258.21 C 1240.68 236.73 1225.78 214.93 1210.20 193.64 M 1241.89 204.37 C 1242.04 205.08 1242.34 206.48 1242.49 207.19 C 1247.70 213.53 1251.68 220.78 1256.90 227.10 C 1258.44 229.41 1261.10 227.92 1263.19 227.47 C 1257.97 219.68 1252.42 212.12 1247.12 204.39 C 1245.36 204.37 1243.62 204.36 1241.89 204.37 M 1264.97 237.45 C 1265.25 239.36 1266.16 241.07 1267.38 242.56 C 1271.48 247.95 1275.02 253.76 1279.15 259.13 C 1280.93 260.06 1283.11 259.48 1285.08 259.73 C 1284.08 256.68 1281.97 254.23 1280.17 251.65 C 1276.81 246.97 1273.66 242.14 1270.14 237.57 C 1268.40 237.52 1266.68 237.48 1264.97 237.45 M 1285.96 268.27 C 1287.06 271.19 1289.10 273.56 1290.89 276.06 C 1294.14 280.59 1297.17 285.28 1300.57 289.71 C 1302.43 289.70 1304.31 289.69 1306.20 289.67 C 1302.21 282.11 1296.44 275.67 1291.98 268.39 C 1289.97 268.31 1287.94 268.26 1285.96 268.27 M 1306.93 297.39 C 1307.34 300.35 1309.38 302.60 1311.05 304.95 C 1314.75 310.11 1318.32 315.36 1322.02 320.52 C 1324.13 320.62 1326.23 320.65 1328.36 320.61 C 1322.98 312.85 1317.48 305.19 1312.19 297.38 C 1310.42 297.37 1308.66 297.37 1306.93 297.39 M 1375.84 336.63 C 1374.96 338.09 1373.31 339.30 1373.43 341.15 C 1374.26 342.47 1375.56 344.52 1377.41 343.53 C 1381.93 337.40 1386.04 330.97 1390.70 324.94 C 1389.77 323.34 1388.84 321.74 1387.94 320.14 C 1383.46 325.30 1380.02 331.24 1375.84 336.63 M 1327.91 328.41 C 1332.96 337.19 1339.53 345.03 1344.99 353.57 C 1347.01 353.31 1350.52 354.33 1349.62 351.01 C 1344.48 343.45 1338.93 336.15 1334.04 328.42 C 1331.99 328.37 1329.93 328.36 1327.91 328.41 M 1358.95 361.24 C 1358.19 361.38 1357.44 361.53 1356.72 361.68 C 1356.40 361.09 1355.78 359.89 1355.46 359.29 C 1353.64 359.38 1351.82 359.49 1350.03 359.61 C 1351.54 363.76 1354.32 367.51 1358.04 369.95 C 1363.54 364.14 1367.52 357.10 1372.37 350.77 C 1371.63 348.99 1370.20 347.65 1369.00 346.22 C 1365.83 351.35 1361.80 355.91 1358.95 361.24 Z" />
<path fill="#559b61" opacity="1.00" d=" M 1727.69 258.71 C 1739.70 259.38 1751.35 256.15 1763.23 255.15 C 1768.80 262.57 1772.46 271.31 1778.80 278.17 C 1785.21 286.09 1790.46 294.87 1795.20 303.88 C 1796.49 305.83 1797.10 308.97 1800.02 308.84 C 1805.68 296.14 1816.43 286.65 1823.49 274.77 C 1828.32 268.26 1833.29 261.84 1837.74 255.03 C 1842.76 255.01 1847.35 257.18 1852.04 258.67 C 1858.32 260.81 1864.57 263.11 1870.67 265.74 C 1870.85 267.18 1870.46 268.40 1869.49 269.40 C 1865.26 274.19 1860.37 278.37 1856.22 283.23 C 1852.96 286.87 1851.45 291.71 1848.07 295.27 C 1835.91 309.15 1825.72 324.72 1817.78 341.38 C 1817.28 342.50 1816.70 343.64 1816.71 344.91 C 1816.48 363.83 1816.25 382.75 1816.78 401.67 C 1805.69 401.70 1794.60 401.99 1783.52 401.62 C 1783.64 386.07 1783.25 370.53 1783.57 354.99 C 1783.50 351.38 1783.91 347.73 1783.36 344.15 C 1771.74 328.87 1763.19 311.55 1752.35 295.73 C 1747.27 288.74 1742.58 281.48 1737.38 274.58 C 1733.63 269.64 1729.91 264.56 1727.69 258.71 Z" />
<path fill="#559b61" opacity="1.00" d=" M 1153.82 264.62 C 1160.46 263.03 1167.51 264.35 1173.97 261.77 C 1177.62 268.36 1179.72 275.71 1183.72 282.13 C 1186.27 286.01 1188.66 289.99 1190.73 294.16 C 1198.77 310.48 1206.72 326.85 1214.49 343.31 C 1222.46 360.61 1228.74 378.77 1238.36 395.27 C 1238.36 396.25 1238.38 397.24 1238.43 398.24 C 1230.77 398.59 1223.27 400.34 1215.83 402.04 C 1213.14 402.50 1210.48 403.01 1207.82 403.57 C 1205.31 398.91 1202.27 394.45 1200.80 389.31 C 1199.30 384.74 1196.58 380.70 1194.88 376.21 C 1193.68 373.14 1192.33 370.12 1190.44 367.42 C 1172.57 367.48 1154.70 367.44 1136.84 367.39 C 1132.78 378.76 1130.11 390.52 1127.32 402.23 C 1125.31 402.89 1123.25 404.12 1121.11 403.27 C 1116.93 402.12 1112.57 402.53 1108.32 401.96 C 1104.72 401.07 1099.53 402.03 1097.85 397.82 C 1099.81 388.60 1101.76 379.37 1104.23 370.28 C 1112.23 337.64 1122.71 305.68 1133.12 273.74 C 1134.02 271.08 1133.49 266.81 1136.93 265.91 C 1142.55 265.35 1148.29 266.07 1153.82 264.62 M 1157.80 302.57 C 1157.36 304.94 1156.75 307.28 1155.94 309.54 C 1152.38 319.78 1149.61 330.29 1145.43 340.30 C 1155.66 340.73 1165.75 337.63 1176.04 338.59 C 1172.34 326.00 1164.95 314.90 1160.07 302.78 C 1159.29 302.70 1158.54 302.63 1157.80 302.57 Z" />
<path fill="#559b61" opacity="1.00" d=" M 1656.99 265.22 C 1661.76 264.21 1666.71 264.45 1671.48 263.25 C 1675.27 269.83 1677.17 277.35 1681.40 283.71 C 1685.05 289.10 1688.01 294.91 1690.85 300.77 C 1700.32 320.42 1710.26 339.87 1718.64 360.03 C 1722.54 369.07 1726.23 378.21 1730.68 387.01 C 1732.54 391.11 1734.99 394.93 1736.59 399.16 C 1725.84 399.67 1715.46 402.85 1704.87 404.52 C 1702.78 399.65 1699.42 395.37 1698.06 390.19 C 1696.76 385.84 1694.11 382.08 1692.49 377.86 C 1691.26 374.66 1689.78 371.57 1688.15 368.56 C 1675.42 368.28 1662.69 368.53 1649.97 368.44 C 1644.90 368.32 1639.72 368.96 1634.81 367.46 C 1630.25 378.92 1627.18 390.95 1625.10 403.09 C 1620.97 405.60 1616.33 403.63 1611.96 403.15 C 1607.29 402.32 1602.59 401.54 1597.84 401.63 C 1597.22 401.23 1595.97 400.42 1595.35 400.02 C 1596.20 392.56 1598.45 385.35 1599.80 377.98 C 1604.32 360.65 1608.76 343.29 1614.17 326.21 C 1615.86 320.08 1617.84 314.04 1619.73 307.97 C 1620.83 304.71 1621.84 301.42 1622.87 298.14 C 1623.96 294.87 1624.96 291.58 1626.11 288.33 C 1628.20 281.37 1630.80 274.56 1632.63 267.52 C 1640.79 267.43 1648.87 265.99 1656.99 265.22 M 1654.41 306.89 C 1652.18 314.25 1649.71 321.54 1647.36 328.87 C 1646.12 332.81 1644.36 336.62 1643.91 340.78 C 1653.66 341.14 1663.29 338.96 1673.06 339.59 C 1672.71 336.89 1671.78 334.35 1670.60 331.93 C 1666.55 322.37 1661.43 313.31 1657.21 303.83 C 1655.58 304.26 1654.65 305.28 1654.41 306.89 Z" />
<path fill="#559b61" opacity="1.00" d=" M 716.70 270.97 C 728.75 265.32 742.70 265.34 755.50 268.12 C 767.35 271.33 778.95 276.58 787.99 285.05 C 794.13 290.97 800.16 297.09 805.06 304.10 C 811.29 313.12 814.13 324.13 814.54 335.00 C 814.76 339.35 813.08 343.49 812.82 347.81 C 812.56 351.98 811.31 356.03 809.34 359.70 C 805.46 367.07 801.49 374.60 795.50 380.51 C 788.95 387.30 781.63 393.74 772.67 397.09 C 767.14 399.79 761.18 401.51 755.11 402.47 C 749.41 402.87 743.70 402.63 738.00 402.57 C 722.59 401.35 708.99 393.28 695.90 385.69 C 683.35 377.94 674.06 365.64 668.74 351.99 C 668.00 347.64 666.26 343.47 666.26 339.01 C 666.06 332.90 666.03 326.78 666.58 320.69 C 668.50 312.99 670.66 305.13 675.17 298.48 C 681.02 290.51 689.01 284.34 697.79 279.88 C 703.78 276.28 710.21 273.54 716.70 270.97 M 733.05 300.41 C 728.14 301.43 722.95 302.61 719.17 306.12 C 714.60 310.26 709.59 314.33 706.98 320.07 C 703.80 326.40 703.69 333.89 705.11 340.68 C 708.51 352.64 720.56 358.43 730.93 363.29 C 731.50 363.52 732.64 363.98 733.21 364.21 C 739.22 366.34 745.80 366.12 752.04 365.31 C 762.76 362.36 769.96 352.74 774.23 342.98 C 775.68 333.74 774.17 323.77 768.93 315.88 C 765.59 310.72 760.22 307.48 755.30 304.02 C 748.63 300.33 740.55 298.72 733.05 300.41 Z" />
<path fill="#559b61" opacity="1.00" d=" M 69.74 273.66 C 72.13 269.73 77.14 267.52 81.63 268.64 C 87.75 271.36 92.97 275.75 97.50 280.62 C 98.03 281.35 99.55 282.51 98.43 283.41 C 86.93 296.14 74.96 308.47 64.42 322.04 C 59.70 319.86 55.98 316.09 51.57 313.40 C 48.56 311.17 44.89 309.84 42.22 307.18 C 49.42 299.06 56.61 290.93 63.99 282.97 C 66.56 280.30 67.66 276.67 69.74 273.66 Z" />
<path fill="#559b61" opacity="1.00" d=" M 1006.07 269.29 C 1023.01 268.80 1040.31 274.50 1052.73 286.26 C 1061.00 293.01 1065.47 303.12 1068.38 313.15 C 1068.97 316.42 1068.66 319.85 1067.68 323.02 C 1064.61 333.52 1058.70 343.24 1050.46 350.48 C 1049.16 351.62 1047.55 352.36 1046.06 353.17 C 1046.94 355.52 1049.44 356.35 1051.37 357.64 C 1061.10 363.74 1070.58 370.27 1079.47 377.56 C 1080.47 378.49 1082.12 379.41 1081.69 381.09 C 1077.24 386.17 1072.58 391.08 1068.51 396.48 C 1068.05 396.48 1067.15 396.50 1066.70 396.51 C 1059.55 391.13 1051.71 386.76 1044.58 381.35 C 1036.81 375.77 1028.44 371.10 1020.66 365.54 C 1018.19 363.34 1014.87 364.92 1012.05 365.31 C 1004.90 365.90 997.76 366.58 990.59 366.44 C 990.68 379.04 990.38 391.66 991.13 404.25 C 991.32 401.39 991.17 398.44 992.19 395.72 C 992.35 398.63 992.31 401.56 992.35 404.48 C 987.16 404.47 981.98 404.35 976.80 404.40 C 980.53 403.84 984.31 403.70 988.07 403.43 C 979.14 404.23 970.35 402.27 961.43 402.68 C 961.37 366.11 961.42 329.55 961.41 292.98 C 960.23 285.20 960.20 277.31 959.42 269.47 C 962.87 268.41 966.45 269.55 969.99 269.41 C 976.99 269.41 984.02 269.73 990.98 268.72 C 996.03 268.13 1001.01 269.54 1006.07 269.29 M 991.61 295.64 C 991.90 309.86 991.33 324.09 991.65 338.32 C 995.82 338.28 999.94 337.58 1004.08 337.13 C 1009.02 336.28 1014.14 336.89 1018.99 335.42 C 1026.88 333.63 1033.94 327.97 1036.47 320.16 C 1036.76 316.39 1036.87 312.59 1036.12 308.87 C 1033.15 303.28 1026.77 301.39 1021.40 298.94 C 1011.65 296.52 1001.54 296.61 991.61 295.64 Z" />
<path fill="#559b61" opacity="1.00" d=" M 855.91 296.79 C 862.32 294.30 869.25 294.18 875.99 293.36 C 884.01 293.43 892.24 292.47 900.05 294.79 C 909.30 297.44 917.55 302.97 924.13 309.92 C 928.59 314.23 932.36 319.27 934.85 324.97 C 939.85 335.95 944.50 348.02 942.01 360.27 C 940.67 365.23 939.78 370.53 936.62 374.75 C 934.37 377.86 933.13 381.63 930.48 384.45 C 923.50 391.23 915.30 396.74 906.16 400.15 C 894.70 404.38 881.73 404.64 870.29 400.20 C 864.71 397.96 859.18 395.36 854.53 391.49 C 848.22 386.18 842.91 379.82 837.88 373.33 C 829.54 362.56 825.28 348.53 826.79 334.96 C 828.15 329.21 829.20 323.22 832.37 318.12 C 837.78 308.90 845.36 300.05 855.91 296.79 M 877.97 319.75 C 871.03 321.64 864.03 325.01 860.26 331.44 C 856.56 336.53 856.92 343.15 857.68 349.07 C 860.19 355.66 864.92 361.16 869.86 366.08 C 874.07 370.44 879.88 373.44 886.00 373.57 C 894.57 373.68 902.51 368.78 908.11 362.57 C 911.94 356.08 912.28 348.23 911.31 340.93 C 908.52 332.88 903.32 324.95 895.17 321.58 C 889.86 319.02 883.68 318.81 877.97 319.75 Z" />
<path fill="#559b61" opacity="1.00" d=" M 17.53 334.55 C 24.65 326.45 32.05 318.60 39.08 310.41 C 46.57 314.56 53.62 319.48 60.47 324.60 C 60.56 324.90 60.75 325.51 60.85 325.81 C 58.26 329.55 55.14 332.89 52.34 336.48 C 42.89 347.71 35.18 360.38 24.93 370.93 C 22.55 369.82 20.79 367.79 18.62 366.36 C 15.74 364.26 12.09 363.08 9.98 360.05 C 7.88 357.14 5.92 353.63 6.68 349.91 C 8.53 343.74 13.29 339.16 17.53 334.55 Z" />
</g>
</svg>
