<?xml version="1.0" encoding="iso-8859-1"?>
<!-- Generator: Adobe Illustrator 19.1.0, SVG Export Plug-In . SVG Version: 6.00 Build 0)  -->
<svg version="1.1" id="Capa_1" xmlns="http://www.w3.org/2000/svg" xmlns:xlink="http://www.w3.org/1999/xlink" x="0px" y="0px"
	 viewBox="0 0 25.413 25.413" style="enable-background:new 0 0 25.413 25.413;fill:#8c8c8c" xml:space="preserve">
<g>
	<g>
		<path d="M4.399,7.673c-0.371,0-0.688,0.106-1.006,0.318C3.128,7.779,2.757,7.673,2.387,7.673c-1.006,0-1.801,0.847-1.801,1.906
			c0,1.112,1.853,3.019,2.436,3.548c0.106,0.106,0.212,0.159,0.371,0.159c0.159,0,0.265-0.053,0.371-0.159
			C4.346,12.545,6.2,10.691,6.2,9.579C6.2,8.52,5.405,7.673,4.399,7.673z M3.393,11.962c-0.9-0.9-1.748-2.012-1.748-2.436
			c0-0.477,0.318-0.847,0.741-0.847c0.212,0,0.424,0.106,0.583,0.318c0.106,0.159,0.265,0.212,0.424,0.212l0,0
			c0.159,0,0.318-0.106,0.424-0.212c0.159-0.212,0.371-0.318,0.583-0.318c0.424,0,0.741,0.371,0.741,0.847
			C5.14,9.897,4.293,11.009,3.393,11.962z"/>
		<path d="M2.493,5.713c0.106,0.106,0.212,0.159,0.371,0.159c0.159,0,0.265-0.053,0.371-0.159C3.816,5.131,5.67,3.277,5.67,2.165
			c0-1.059-0.794-1.906-1.801-1.906c-0.371,0-0.688,0.106-1.006,0.318C2.598,0.365,2.228,0.259,1.857,0.259
			c-1.006,0-1.801,0.847-1.801,1.906C0.057,3.33,1.91,5.184,2.493,5.713z M1.857,1.371c0.212,0,0.424,0.106,0.583,0.318
			C2.546,1.847,2.704,1.9,2.863,1.9l0,0c0.159,0,0.318-0.106,0.424-0.212c0.159-0.212,0.371-0.318,0.583-0.318
			c0.424,0,0.741,0.371,0.741,0.847c0,0.371-0.847,1.483-1.748,2.436c-0.9-0.9-1.748-2.012-1.748-2.436
			C1.116,1.742,1.433,1.371,1.857,1.371z"/>
		<path d="M25.317,10.162c-0.053-0.106-0.159-0.212-0.265-0.318l-4.501-2.012c0.106,0,0.212,0.053,0.318,0.053
			c0.265,0,0.53-0.053,0.794-0.159c0.583-0.212,1.006-0.635,1.271-1.165c0.53-1.112,0-2.489-1.112-2.966
			c-0.635-0.265-1.959-0.212-2.86-0.106c-0.583,0.106-1.271,0.265-1.801,0.477c-0.159-0.583-0.477-1.165-0.794-1.695
			c-0.53-0.794-1.324-1.801-1.959-2.065c-0.53-0.265-1.165-0.265-1.748-0.053c-0.583,0.212-1.006,0.635-1.271,1.165
			s-0.265,1.165-0.053,1.748c0.159,0.371,0.371,0.635,0.635,0.9L7.47,1.953C7.365,1.9,7.206,1.9,7.047,1.953
			C6.941,2.006,6.835,2.112,6.729,2.218L5.087,5.872c-0.106,0.265,0,0.583,0.265,0.688l15.357,6.937H4.876
			c-0.318,0-0.53,0.212-0.53,0.53v10.856c0,0.318,0.212,0.53,0.53,0.53h7.043h3.23h7.043c0.318,0,0.53-0.212,0.53-0.53V14.345
			l0.265,0.106c0.053,0.053,0.159,0.053,0.212,0.053c0.212,0,0.371-0.106,0.477-0.318l1.642-3.654
			C25.37,10.426,25.37,10.268,25.317,10.162z M5.405,14.557h5.984v9.797H5.405V14.557z M12.448,24.354v-9.797h2.171v9.797H12.448z
			 M21.663,24.354h-5.984v-9.797h5.984V24.354z M16.791,7.302L15.573,9.95l-1.959-0.9l1.218-2.648l1.324,0.583L16.791,7.302z
			 M16.367,5.607c0.159,0.212,0.371,0.424,0.635,0.635l-1.536-0.688c0.212,0.053,0.424,0.106,0.635,0.106
			C16.208,5.607,16.314,5.607,16.367,5.607z M21.345,4.495c0.583,0.265,0.847,1.006,0.583,1.589
			c-0.106,0.318-0.371,0.53-0.688,0.635s-0.635,0.106-0.9-0.053c-0.106-0.053-0.318-0.106-0.477-0.212
			c-1.536-0.635-2.436-1.112-2.595-1.43C17.744,4.601,20.604,4.178,21.345,4.495z M12.342,1.742c0.106-0.318,0.371-0.53,0.688-0.635
			c0.159-0.053,0.265-0.053,0.424-0.053s0.318,0.053,0.477,0.106c0.741,0.318,2.33,2.754,2.277,3.389
			c-0.318,0.053-1.271-0.265-2.754-1.006c-0.212-0.106-0.371-0.159-0.477-0.212c-0.318-0.106-0.53-0.371-0.635-0.688
			C12.184,2.377,12.184,2.059,12.342,1.742z M7.47,3.118l6.355,2.86l-1.218,2.701l-6.355-2.86L7.47,3.118z M22.934,13.286
			l-6.355-2.86l1.218-2.701l6.355,2.86L22.934,13.286z"/>
	</g>
</g>
<g>
</g>
<g>
</g>
<g>
</g>
<g>
</g>
<g>
</g>
<g>
</g>
<g>
</g>
<g>
</g>
<g>
</g>
<g>
</g>
<g>
</g>
<g>
</g>
<g>
</g>
<g>
</g>
<g>
</g>
</svg>
